<mxfile host="app.diagrams.net" modified="2024-05-05T08:53:16.678Z" agent="Mozilla/5.0 (Macintosh; Intel Mac OS X 10_15_7) AppleWebKit/537.36 (KHTML, like Gecko) Chrome/124.0.0.0 Safari/537.36" etag="sPYb6-G6_2c67Nv82u9l" version="24.3.1" type="github">
  <diagram name="第 1 页" id="HBsREhDfwdw9ATLPlkfG">
    <mxGraphModel dx="954" dy="1040" grid="0" gridSize="10" guides="1" tooltips="1" connect="1" arrows="1" fold="1" page="0" pageScale="1" pageWidth="827" pageHeight="1169" math="0" shadow="0">
      <root>
        <mxCell id="0" />
        <mxCell id="1" parent="0" />
        <mxCell id="EMdC_AhXmyoxSVIC6cJZ-1" value="&lt;span style=&quot;background-color: initial; font-size: 11px;&quot;&gt;Please list all entity words in the text that fit the entity type.（&lt;b&gt;Task Description&lt;/b&gt;)&lt;/span&gt;&lt;br&gt;&lt;span style=&quot;font-size: 11px; background-color: initial;&quot;&gt;Entity Type: geographical social political, organization, person, location, facility, vehicle, weapon.(&lt;b&gt;Entity Type&lt;/b&gt;)&lt;/span&gt;&lt;br&gt;&lt;div style=&quot;font-size: 11px;&quot;&gt;&lt;font style=&quot;font-size: 11px;&quot;&gt;The output format is as follows: [{&quot;entity&quot;: word1,&quot;entity_type&quot;:type1 },{&quot;entity&quot;: word2,&quot;entity_type&quot;:type2 }].(&lt;b&gt;Output Format&lt;/b&gt;)&lt;/font&gt;&lt;/div&gt;&lt;div style=&quot;&quot;&gt;&lt;font style=&quot;font-size: 11px;&quot;&gt;Text:&amp;nbsp;&lt;/font&gt;&lt;span style=&quot;color: rgb(0, 0, 0); text-align: center; background-color: initial;&quot;&gt;&lt;font style=&quot;font-size: 10px;&quot;&gt;Xinhua News Agency , Urumchi , September 1st , by reporters Shengjiang Li and Jian &#39; gang Ding(&lt;b&gt;Input Text&lt;/b&gt;)&lt;/font&gt;&lt;/span&gt;&lt;/div&gt;" style="rounded=1;whiteSpace=wrap;html=1;strokeColor=#666666;fontColor=#333333;fillColor=#dfdddd;align=left;" vertex="1" parent="1">
          <mxGeometry x="34" y="-63" width="616" height="109" as="geometry" />
        </mxCell>
        <mxCell id="EMdC_AhXmyoxSVIC6cJZ-2" value="&lt;div style=&quot;text-align: left;&quot;&gt;&lt;font color=&quot;#393c56&quot;&gt;Vanalia- NER Method&lt;/font&gt;&lt;/div&gt;" style="rounded=1;whiteSpace=wrap;html=1;strokeColor=#666666;fontColor=#333333;fillColor=#f5f5f5;" vertex="1" parent="1">
          <mxGeometry x="49" y="-78" width="165" height="26" as="geometry" />
        </mxCell>
        <mxCell id="EMdC_AhXmyoxSVIC6cJZ-3" value="&lt;span style=&quot;background-color: initial; font-size: 11px;&quot;&gt;Please list all entity words in the text that fit the entity type &quot;&lt;b&gt;organization&lt;/b&gt;&quot;.&lt;/span&gt;&lt;br&gt;&lt;div style=&quot;font-size: 11px;&quot;&gt;&lt;font style=&quot;font-size: 11px;&quot;&gt;The output format is as follows: [{&quot;entity&quot;: word1,&quot;entity_type&quot;:type1 },{&quot;entity&quot;: word2,&quot;entity_type&quot;:type2 }].&lt;/font&gt;&lt;/div&gt;&lt;div style=&quot;&quot;&gt;&lt;font style=&quot;font-size: 11px;&quot;&gt;Text:&amp;nbsp;&lt;/font&gt;&lt;span style=&quot;color: rgb(0, 0, 0); text-align: center; background-color: initial;&quot;&gt;&lt;font style=&quot;font-size: 10px;&quot;&gt;Xinhua News Agency , Urumchi , September 1st , by reporters Shengjiang Li and Jian &#39; gang Ding&lt;/font&gt;&lt;/span&gt;&lt;/div&gt;" style="rounded=1;whiteSpace=wrap;html=1;strokeColor=#82b366;fillColor=#d5e8d4;align=left;" vertex="1" parent="1">
          <mxGeometry x="34" y="103" width="616" height="73" as="geometry" />
        </mxCell>
        <mxCell id="EMdC_AhXmyoxSVIC6cJZ-4" value="&lt;div style=&quot;text-align: left;&quot;&gt;&lt;font color=&quot;#393c56&quot;&gt;Decomposed-NER Method&lt;/font&gt;&lt;/div&gt;" style="rounded=1;whiteSpace=wrap;html=1;strokeColor=#666666;fontColor=#333333;fillColor=#f5f5f5;" vertex="1" parent="1">
          <mxGeometry x="49" y="88" width="165" height="26" as="geometry" />
        </mxCell>
        <mxCell id="EMdC_AhXmyoxSVIC6cJZ-5" value="&lt;span style=&quot;background-color: initial; font-size: 11px;&quot;&gt;Please list all entity words in the text that fit the entity type &quot;&lt;b&gt;person&lt;/b&gt;&quot;.&lt;/span&gt;&lt;br&gt;&lt;div style=&quot;font-size: 11px;&quot;&gt;&lt;font style=&quot;font-size: 11px;&quot;&gt;The output format is as follows: [{&quot;entity&quot;: word1,&quot;entity_type&quot;:type1 },{&quot;entity&quot;: word2,&quot;entity_type&quot;:type2 }].&lt;/font&gt;&lt;/div&gt;&lt;div style=&quot;&quot;&gt;&lt;font style=&quot;font-size: 11px;&quot;&gt;Text:&amp;nbsp;&lt;/font&gt;&lt;span style=&quot;color: rgb(0, 0, 0); text-align: center; background-color: initial;&quot;&gt;&lt;font style=&quot;font-size: 10px;&quot;&gt;Xinhua News Agency , Urumchi , September 1st , by reporters Shengjiang Li and Jian &#39; gang Ding&lt;/font&gt;&lt;/span&gt;&lt;/div&gt;" style="rounded=1;whiteSpace=wrap;html=1;strokeColor=#82b366;fillColor=#d5e8d4;align=left;" vertex="1" parent="1">
          <mxGeometry x="34" y="187" width="616" height="64" as="geometry" />
        </mxCell>
        <mxCell id="EMdC_AhXmyoxSVIC6cJZ-6" value="&lt;span style=&quot;background-color: initial; font-size: 11px;&quot;&gt;Please list all entity words in the text that fit the entity type &quot;&lt;b&gt;location&lt;/b&gt;&quot;.&lt;/span&gt;&lt;br&gt;&lt;div style=&quot;font-size: 11px;&quot;&gt;&lt;font style=&quot;font-size: 11px;&quot;&gt;The output format is as follows: [{&quot;entity&quot;: word1,&quot;entity_type&quot;:type1 },{&quot;entity&quot;: word2,&quot;entity_type&quot;:type2 }].&lt;/font&gt;&lt;/div&gt;&lt;div style=&quot;&quot;&gt;&lt;font style=&quot;font-size: 11px;&quot;&gt;Text:&amp;nbsp;&lt;/font&gt;&lt;span style=&quot;color: rgb(0, 0, 0); text-align: center; background-color: initial;&quot;&gt;&lt;font style=&quot;font-size: 10px;&quot;&gt;Xinhua News Agency , Urumchi , September 1st , by reporters Shengjiang Li and Jian &#39; gang Ding&lt;/font&gt;&lt;/span&gt;&lt;/div&gt;" style="rounded=1;whiteSpace=wrap;html=1;strokeColor=#82b366;fillColor=#d5e8d4;align=left;" vertex="1" parent="1">
          <mxGeometry x="34" y="275" width="616" height="64" as="geometry" />
        </mxCell>
        <mxCell id="EMdC_AhXmyoxSVIC6cJZ-7" value="&lt;font style=&quot;font-size: 17px;&quot;&gt;...&lt;/font&gt;" style="text;html=1;align=center;verticalAlign=middle;resizable=0;points=[];autosize=1;strokeColor=none;fillColor=none;" vertex="1" parent="1">
          <mxGeometry x="304" y="246" width="32" height="32" as="geometry" />
        </mxCell>
      </root>
    </mxGraphModel>
  </diagram>
</mxfile>
